<svg width="39" height="32" viewBox="0 0 39 32" fill="none" xmlns="http://www.w3.org/2000/svg">
  <g clip-path="url(#clip0_1070_50)">
    <path d="M39 19.2858L35.2661 20.0855L36.1263 17.7918L33.0292 17.5563L37.8152 16.7215L36.3601 19.1803L39 19.2858Z" fill="#F0C66C"/>
    <path d="M37.4907 11.0112L35.7773 12.6439L35.4981 11.1553L33.7882 12.0358L36.0477 10.0427L36.0652 11.8126L37.4907 11.0112Z" fill="#F0C66C"/>
    <path d="M37.4628 2.80859L32.6122 1.37442L33.5178 4.48883L29.4035 4.48707L35.6429 6.07591L33.9662 2.68029L37.4628 2.80859Z" fill="#F0C66C"/>
    <path d="M5.03894 21.2226C5.03894 21.2226 6.17656 26.599 6.53424 28.9032C6.70349 29.9929 6.97219 30.7961 7.20948 31.3374C7.43805 31.8594 8.02082 32.1195 8.55997 31.9473L11.5366 30.9912C12.149 30.7943 12.4683 30.1177 12.231 29.5166C11.3482 27.2792 9.46029 22.2754 9.47599 20.386L5.03894 21.2226Z" fill="#315782"/>
    <path d="M1.26144 14.8901L2.74104 20.8395C2.85271 21.2859 3.28717 21.5689 3.73733 21.488L11.7111 20.0433L10.0326 11.5947L2.13211 13.4524C1.4935 13.6036 1.10267 14.2503 1.26144 14.8901Z" fill="#F0C66C"/>
    <path d="M10.0326 11.5947L22.8064 0.469281C23.7817 -0.379623 25.2944 -0.0368976 25.8092 1.15473C27.5296 5.14265 30.6824 13.6739 30.6842 22.6427C30.6842 23.4987 29.8885 24.1314 29.0597 23.9451L11.7094 20.0415L10.0326 11.5947Z" fill="#E69724"/>
    <path d="M1.36264 15.2961C0.406481 15.5088 -0.18501 16.4754 0.0522845 17.4315L0.495466 19.2049C0.734505 20.161 1.70636 20.7305 2.64856 20.4686L1.36264 15.2961Z" fill="#E69724"/>
    <path d="M28.2868 7.91608C28.2868 7.91608 31.1518 8.43104 31.4624 10.7581C31.7729 13.0851 30.0072 14.9059 30.0072 14.9059C30.0072 14.9059 28.6776 9.25358 28.2868 7.91608Z" fill="#E69724"/>
    <path d="M30.6859 22.6445C30.6842 13.6756 27.5313 5.1444 25.8109 1.15648C25.2962 -0.0351493 23.7835 -0.379632 22.8081 0.47103L22.4382 0.792664C23.117 1.87357 24.4692 4.34646 25.5981 8.41171C27.055 13.658 28.4613 19.5125 28.2938 23.7728L29.0633 23.9468C29.8903 24.1331 30.6859 23.5004 30.6859 22.6445Z" fill="#F0C66C"/>
    <path d="M5.75783 25.8063C5.75783 25.8063 6.0562 25.1279 6.22893 25.2C6.44355 25.2896 6.31617 25.8063 6.09633 26.2563C6.06143 26.3266 6.09109 26.4285 6.07714 26.4479C6.06492 26.4654 6.00734 26.3301 5.99338 26.3477C5.64442 26.7888 5.75783 25.8063 5.75783 25.8063Z" fill="#E1B39D"/>
  </g>
  <defs>
    <clipPath id="clip0_1070_50">
      <rect width="39" height="32" fill="white"/>
    </clipPath>
  </defs>
</svg>
